<!DOCTYPE svg PUBLIC "-//W3C//DTD SVG 1.1//EN" "http://www.w3.org/Graphics/SVG/1.1/DTD/svg11.dtd">
<!-- Uploaded to: SVG Repo, www.svgrepo.com, Transformed by: SVG Repo Mixer Tools -->
<svg fill="#1b0656" height="64px" width="64px" version="1.1" id="Capa_1" xmlns="http://www.w3.org/2000/svg" xmlns:xlink="http://www.w3.org/1999/xlink" viewBox="0 0 484.70 484.70" xml:space="preserve" stroke="#1b0656">
<g id="SVGRepo_bgCarrier" stroke-width="0"/>
<g id="SVGRepo_tracerCarrier" stroke-linecap="round" stroke-linejoin="round"/>
<g id="SVGRepo_iconCarrier"> <g> <path d="M481.978,314.888c-1.065-5.699-4.286-10.641-9.067-13.915L333.376,205.4c-2.33-1.595-5.205-2.186-7.974-1.637 l-37.874,7.503c-0.066-0.076-0.123-0.158-0.191-0.233c-21.765-23.991-50.057-40.783-80.939-48.659l73.887-91.479 c2.904-3.596,3.038-8.52,0.693-12.217c-0.011-0.02-0.017-0.039-0.029-0.059l-0.086-0.134c-0.008-0.014-0.016-0.026-0.025-0.039 L246.363,4.822C244.431,1.816,241.103,0,237.531,0H94.584c-3.573,0-6.9,1.816-8.833,4.822L51.278,58.446 c-0.008,0.013-0.016,0.025-0.024,0.039l-0.086,0.134c-0.009,0.015-0.012,0.029-0.021,0.043c-2.354,3.699-2.223,8.632,0.685,12.232 l73.854,91.438C54.877,180.358,2.35,244.657,2.35,320.997c0,90.268,73.439,163.707,163.708,163.707 c42.501,0,82.781-16.214,113.417-45.654c26.501-25.467,43.405-58.518,48.587-94.404l78.232,53.584 c3.628,2.485,7.866,3.799,12.254,3.799c7.169,0,13.866-3.528,17.913-9.438l42.089-61.451 C481.826,326.357,483.043,320.586,481.978,314.888z M186.402,153.707h-40.688l-63.735-78.91h168.159L186.402,153.707z M100.317,21 h131.481l21.084,32.797H79.233L100.317,21z M166.058,463.704c-78.689,0-142.707-64.018-142.707-142.707 S87.369,178.29,166.058,178.29c35.938,0,70.554,13.673,96.793,37.865l-3.942,0.781c-5.602,1.11-9.29,6.494-8.301,12.119 l2.234,12.697l-39.345-5.085c-14.027-7.922-30.213-12.451-47.439-12.451c-53.366,0-96.782,43.415-96.782,96.78 c0,53.365,43.416,96.78,96.782,96.78c53.365-0.001,96.781-43.417,96.781-96.78c0-22.295-7.582-42.85-20.297-59.23l14.124,1.714 l5.689,32.334c0.489,2.781,2.078,5.248,4.408,6.844l41.641,28.521C303.174,405.816,241.412,463.704,166.058,463.704z M241.839,320.997c0,41.784-33.995,75.779-75.781,75.78c-41.786,0-75.782-33.995-75.782-75.78c0-41.785,33.996-75.78,75.782-75.78 C207.844,245.217,241.839,279.212,241.839,320.997z M461.225,319.272l-42.091,61.452c-0.182,0.266-0.445,0.305-0.586,0.305 c-0.181,0-0.301-0.065-0.386-0.124l-135.891-93.077l-9.2-52.288l52.08-10.317l135.893,93.077c0.059,0.041,0.238,0.163,0.291,0.448 C461.389,319.033,461.266,319.212,461.225,319.272z"/> <path d="M386.006,298.815l-57.135-37.767c-4.838-3.196-11.352-1.867-14.549,2.97c-3.198,4.838-1.869,11.352,2.969,14.55 l57.135,37.768c1.783,1.178,3.792,1.741,5.78,1.741c3.407,0,6.749-1.656,8.769-4.711 C392.173,308.527,390.844,302.014,386.006,298.815z"/> </g> </g>
</svg>